<mxfile host="app.diagrams.net" modified="2023-08-29T11:32:43.373Z" agent="Mozilla/5.0 (Windows NT 10.0; Win64; x64) AppleWebKit/537.36 (KHTML, like Gecko) Chrome/116.0.0.0 Safari/537.36" version="21.6.9" etag="MFI0c25y9QpVBp-g2J-9" type="github">
  <diagram name="PÃ¡gina-1" id="y9Tj34gifBu0GAtoQ2cZ">
    <mxGraphModel>
      <root>
        <mxCell id="0" />
        <mxCell id="1" parent="0" />
      </root>
    </mxGraphModel>
  </diagram>
</mxfile>
